<svg id="visual" viewBox="0 0 900 600" width="900" height="600" xmlns="http://www.w3.org/2000/svg" xmlns:xlink="http://www.w3.org/1999/xlink" version="1.1"><rect x="0" y="0" width="900" height="600" fill="#001220"></rect><path d="M0 393L21.5 399C43 405 86 417 128.8 413.8C171.7 410.7 214.3 392.3 257.2 381.8C300 371.3 343 368.7 385.8 372.5C428.7 376.3 471.3 386.7 514.2 399.8C557 413 600 429 642.8 421.5C685.7 414 728.3 383 771.2 371.5C814 360 857 368 878.5 372L900 376L900 601L878.5 601C857 601 814 601 771.2 601C728.3 601 685.7 601 642.8 601C600 601 557 601 514.2 601C471.3 601 428.7 601 385.8 601C343 601 300 601 257.2 601C214.3 601 171.7 601 128.8 601C86 601 43 601 21.5 601L0 601Z" fill="#fa7268"></path><path d="M0 413L21.5 410C43 407 86 401 128.8 406.3C171.7 411.7 214.3 428.3 257.2 432.2C300 436 343 427 385.8 419.5C428.7 412 471.3 406 514.2 416.3C557 426.7 600 453.3 642.8 462.7C685.7 472 728.3 464 771.2 455.8C814 447.7 857 439.3 878.5 435.2L900 431L900 601L878.5 601C857 601 814 601 771.2 601C728.3 601 685.7 601 642.8 601C600 601 557 601 514.2 601C471.3 601 428.7 601 385.8 601C343 601 300 601 257.2 601C214.3 601 171.7 601 128.8 601C86 601 43 601 21.5 601L0 601Z" fill="#ef5f67"></path><path d="M0 486L21.5 490.2C43 494.3 86 502.7 128.8 499C171.7 495.3 214.3 479.7 257.2 474.7C300 469.7 343 475.3 385.8 471.8C428.7 468.3 471.3 455.7 514.2 451.7C557 447.7 600 452.3 642.8 459.2C685.7 466 728.3 475 771.2 481.2C814 487.3 857 490.7 878.5 492.3L900 494L900 601L878.5 601C857 601 814 601 771.2 601C728.3 601 685.7 601 642.8 601C600 601 557 601 514.2 601C471.3 601 428.7 601 385.8 601C343 601 300 601 257.2 601C214.3 601 171.7 601 128.8 601C86 601 43 601 21.5 601L0 601Z" fill="#e34c67"></path><path d="M0 497L21.5 501.2C43 505.3 86 513.7 128.8 520.8C171.7 528 214.3 534 257.2 528.5C300 523 343 506 385.8 498C428.7 490 471.3 491 514.2 499.5C557 508 600 524 642.8 525.5C685.7 527 728.3 514 771.2 505.7C814 497.3 857 493.7 878.5 491.8L900 490L900 601L878.5 601C857 601 814 601 771.2 601C728.3 601 685.7 601 642.8 601C600 601 557 601 514.2 601C471.3 601 428.7 601 385.8 601C343 601 300 601 257.2 601C214.3 601 171.7 601 128.8 601C86 601 43 601 21.5 601L0 601Z" fill="#d53867"></path><path d="M0 569L21.5 566.7C43 564.3 86 559.7 128.8 556C171.7 552.3 214.3 549.7 257.2 544.8C300 540 343 533 385.8 536.7C428.7 540.3 471.3 554.7 514.2 558C557 561.3 600 553.7 642.8 549.5C685.7 545.3 728.3 544.7 771.2 545.3C814 546 857 548 878.5 549L900 550L900 601L878.5 601C857 601 814 601 771.2 601C728.3 601 685.7 601 642.8 601C600 601 557 601 514.2 601C471.3 601 428.7 601 385.8 601C343 601 300 601 257.2 601C214.3 601 171.7 601 128.8 601C86 601 43 601 21.5 601L0 601Z" fill="#c62368"></path></svg>