<svg id="visual" viewBox="0 0 900 600" width="900" height="600" xmlns="http://www.w3.org/2000/svg" xmlns:xlink="http://www.w3.org/1999/xlink" version="1.1"><rect x="0" y="0" width="900" height="600" fill="#002233"></rect><path d="M0 422L21.5 435.2C43 448.3 86 474.7 128.8 482.5C171.7 490.3 214.3 479.7 257.2 474.5C300 469.3 343 469.7 385.8 476.8C428.7 484 471.3 498 514.2 503.8C557 509.7 600 507.3 642.8 498C685.7 488.7 728.3 472.3 771.2 462C814 451.7 857 447.3 878.5 445.2L900 443L900 601L878.5 601C857 601 814 601 771.2 601C728.3 601 685.7 601 642.8 601C600 601 557 601 514.2 601C471.3 601 428.7 601 385.8 601C343 601 300 601 257.2 601C214.3 601 171.7 601 128.8 601C86 601 43 601 21.5 601L0 601Z" fill="#0066FF" stroke-linecap="round" stroke-linejoin="miter"></path></svg>